<svg width="80" height="80" viewBox="0 0 80 80" fill="none" xmlns="http://www.w3.org/2000/svg">
<path d="M75.9089 0H3.99521C1.78871 0 0 1.78923 0 3.99636V75.9309C0 78.138 1.78871 79.9273 3.99521 79.9273H75.9089C78.1154 79.9273 79.9041 78.138 79.9041 75.9309V3.99636C79.9041 1.78923 78.1154 0 75.9089 0Z" fill="#2A69E3"/>
<path d="M42.0745 59.5456C41.5839 59.1068 41.0685 58.6664 40.5779 58.1804C40.1856 58.5457 39.818 58.887 39.4257 59.2282C34.5683 63.4404 29.5647 65.1948 26.5963 63.4892C23.7253 61.8571 22.8176 57.0326 23.9714 50.9662C24.0939 50.3081 24.2412 49.6503 24.4133 48.9928C23.8979 48.8465 23.4073 48.7002 22.9167 48.53C16.808 46.4375 12.7849 43.0238 12.7849 39.6125C12.7849 36.3243 16.5403 33.132 22.4005 31.0859C23.0629 30.8669 23.7501 30.6471 24.4612 30.452C24.2894 29.8182 24.1664 29.21 24.0441 28.6249C22.8176 22.4593 23.6766 17.539 26.5715 15.8829C29.5887 14.1285 34.5931 16.0044 39.6214 20.4148C39.9155 20.6825 40.2103 20.9743 40.5292 21.2668C40.9958 20.8288 41.4369 20.3876 41.9035 20.0007C46.6642 15.8829 51.3969 14.1525 54.2902 15.8094C57.3074 17.5142 58.1912 22.779 56.8416 29.2819C56.7681 29.6967 56.6698 30.086 56.5723 30.5008C57.1852 30.6718 57.798 30.8661 58.363 31.0603C64.3486 33.1072 68.2247 36.2987 68.176 39.6613C68.176 43.0981 64.0306 46.483 57.6766 48.5779C57.333 48.6755 56.9902 48.7969 56.6466 48.8977C56.7936 49.3852 56.8919 49.872 56.9902 50.3595C58.2687 56.6738 57.2851 61.8355 54.3166 63.5411C53.5271 63.9795 52.6353 64.2001 51.7325 64.1805C49.0078 64.1813 45.5543 62.5117 42.0745 59.5456ZM46.8831 50.6041C45.4677 52.6524 43.9196 54.6058 42.2487 56.4516C42.7145 56.9152 43.1804 57.3308 43.647 57.7184C47.6942 61.1777 51.4233 62.4693 53.1644 61.4702C53.9746 61.0074 54.661 59.8381 54.9806 58.0597C55.335 55.6423 55.235 53.1799 54.6858 50.7991C54.6123 50.3603 54.514 49.9199 54.3909 49.4587C51.9147 49.9977 49.4068 50.3792 46.8823 50.6009L46.8831 50.6041ZM26.3262 51.3842C25.321 56.5731 26.0561 60.4471 27.798 61.4462C28.6083 61.909 29.9554 61.909 31.6742 61.3C33.9623 60.4102 36.0663 59.1052 37.8803 57.4507C38.2487 57.1581 38.5915 56.8168 38.9598 56.4764C37.2508 54.6285 35.6607 52.6741 34.1992 50.6249C31.6852 50.4292 29.1865 50.0717 26.7185 49.5547C26.5715 50.1869 26.4485 50.7951 26.3254 51.3802L26.3262 51.3842ZM40.6035 54.7947C41.683 53.6006 42.7609 52.285 43.842 50.8231C42.7625 50.8719 41.6342 50.8958 40.506 50.8958C39.4017 50.8958 38.3225 50.8716 37.2683 50.8231C38.3119 52.2015 39.4248 53.526 40.6027 54.7915L40.6035 54.7947ZM35.4513 31.0115C34.5196 32.3511 33.6135 33.7642 32.7529 35.2477C31.8939 36.7095 31.1093 38.1962 30.3973 39.6812C31.1332 41.1431 31.9155 42.6298 32.7769 44.1404C33.6358 45.6023 34.5435 47.0393 35.4752 48.4037C37.0941 48.5012 38.7873 48.55 40.5044 48.55C42.2455 48.55 43.9403 48.5012 45.5815 48.3797C46.4652 47.0393 47.3721 45.6022 48.2311 44.1156C49.0901 42.629 49.8987 41.1191 50.6107 39.6573C49.8995 38.2186 49.0925 36.7335 48.2311 35.2477C47.3698 33.7618 46.4644 32.3479 45.5575 31.0115C43.9139 30.8892 42.2207 30.8157 40.5044 30.8157C38.788 30.8157 37.0949 30.89 35.4513 31.0115ZM27.3562 47.3111C29.0417 47.6692 30.7449 47.9379 32.4588 48.116C31.8699 47.1896 31.2819 46.264 30.7169 45.2897C30.1776 44.3402 29.6374 43.3891 29.1468 42.4395C28.4649 44.0308 27.8671 45.6569 27.3562 47.3111ZM50.2886 45.2642C49.7245 46.2385 49.1604 47.1648 48.5963 48.0664C50.3357 47.8629 52.0634 47.5694 53.7725 47.1872C53.2379 45.5389 52.6153 43.9204 51.9075 42.3388C51.3951 43.3129 50.8565 44.2882 50.2918 45.265L50.2886 45.2642ZM23.1612 33.3294C18.1576 35.083 15.1404 37.6455 15.1404 39.6389C15.1404 40.5652 15.8268 41.7346 17.2004 42.9031C19.1399 44.415 21.3328 45.5698 23.6766 46.3136C24.1185 46.4599 24.5843 46.5822 25.0501 46.7284C25.8066 44.3254 26.7165 41.9733 27.7741 39.6868C26.7144 37.4378 25.8125 35.1178 25.0749 32.7436C24.4128 32.9125 23.7749 33.1078 23.1612 33.3294ZM53.2603 39.6389C54.348 41.896 55.2824 44.224 56.0569 46.6069C56.3765 46.5102 56.6962 46.4119 56.9894 46.3144C62.4596 44.5112 65.8452 41.7585 65.8699 39.6141C65.8699 37.6159 62.7297 35.0343 57.6023 33.2799C57.0877 33.1096 56.5236 32.9386 55.9594 32.7683C55.212 35.1147 54.3103 37.4091 53.2603 39.6365V39.6389ZM50.2679 34.0328C50.832 35.0071 51.3713 35.9582 51.866 36.9102C52.5459 35.362 53.1355 33.7757 53.6318 32.1593C51.9633 31.7813 50.2768 31.4878 48.5787 31.2801C49.1636 32.1817 49.7277 33.0832 50.2679 34.0328ZM27.3801 32.1305C27.8707 33.6891 28.4596 35.2733 29.1468 36.9054C29.6374 35.9558 30.1776 35.0047 30.7169 34.0552C31.2563 33.1056 31.8204 32.1793 32.4093 31.2777C30.6434 31.4999 28.9758 31.7924 27.3801 32.1305ZM43.4489 21.7783C43.0318 22.1436 42.6147 22.5336 42.1976 22.9237C43.8931 24.7446 45.4588 26.6822 46.8831 28.7224C49.3756 28.9462 51.8502 29.3372 54.2902 29.8925C54.3885 29.5273 54.462 29.1612 54.5355 28.7959C55.6878 23.193 54.9774 18.9041 53.1125 17.8331C52.6983 17.6189 52.2361 17.5143 51.7701 17.5294C49.7661 17.5286 46.6914 18.9817 43.4489 21.7783ZM27.7485 17.9035C26.0066 18.9017 25.3202 22.8981 26.3502 28.1605C26.4724 28.72 26.5963 29.2795 26.7425 29.8654C29.186 29.3308 31.6603 28.9485 34.1512 28.7208C35.5806 26.6779 37.1545 24.74 38.8608 22.9221C38.5907 22.6535 38.2966 22.4106 38.0266 22.166C34.6091 19.1575 31.3306 17.5694 29.1868 17.5694C28.6864 17.5531 28.1905 17.6683 27.7485 17.9035ZM43.7916 28.5258C42.778 27.1587 41.6888 25.8494 40.5292 24.6038C39.4257 25.7971 38.3214 27.1135 37.2419 28.5258C38.3214 28.477 39.3993 28.4531 40.5044 28.4531C41.6095 28.4531 42.7121 28.4786 43.7916 28.5266V28.5258ZM35.5959 39.7348C35.5891 38.7533 35.8738 37.7918 36.414 36.9724C36.9542 36.1529 37.7256 35.5124 38.6302 35.1321C39.5348 34.7517 40.5319 34.6487 41.4952 34.836C42.4584 35.0233 43.3444 35.4925 44.0406 36.1842C44.7369 36.8758 45.2122 37.7587 45.4061 38.7209C45.6001 39.6831 45.504 40.6813 45.1301 41.5888C44.7561 42.4963 44.1212 43.2723 43.3058 43.8183C42.4904 44.3644 41.5312 44.6559 40.5499 44.6559C39.9012 44.6598 39.258 44.5354 38.6574 44.2899C38.0569 44.0444 37.5107 43.6826 37.0504 43.2253C36.59 42.768 36.2245 42.2243 35.9749 41.6252C35.7253 41.0262 35.5965 40.3838 35.5959 39.7348Z" fill="white"/>
</svg>
